<?xml version="1.0" encoding="utf-8"?>
<!-- Generator: Adobe Illustrator 24.2.0, SVG Export Plug-In . SVG Version: 6.00 Build 0)  -->
<svg version="1.1" id="图层_1" xmlns="http://www.w3.org/2000/svg" xmlns:xlink="http://www.w3.org/1999/xlink" x="0px" y="0px"
	 viewBox="0 0 175.18 129.78" style="enable-background:new 0 0 175.18 129.78;" xml:space="preserve">
<style type="text/css">
	.st0{fill:#FFFFFF;stroke:#000000;stroke-miterlimit:10;}
	.st1{stroke:#000000;stroke-width:2;stroke-miterlimit:10;}
	.st2{fill:none;stroke:#000000;stroke-width:2;stroke-miterlimit:10;}
	.st3{font-family:'TimesNewRomanPS-BoldMT';}
	.st4{font-size:16px;}
</style>
<path class="st0" d="M15.47,300.26"/>
<path class="st0" d="M60,300.37"/>
<path class="st0" d="M23.95,291.05"/>
<line class="st1" x1="31.92" y1="66.97" x2="145.31" y2="66.97"/>
<line class="st2" x1="60.27" y1="116.07" x2="116.96" y2="17.87"/>
<line class="st2" x1="116.96" y1="116.07" x2="60.27" y2="17.87"/>
<circle class="st1" cx="88.62" cy="66.97" r="2.83"/>
<text transform="matrix(1 0 0 1 122.9038 30.7261)" class="st3 st4">j</text>
<text transform="matrix(0.583 0 0 0.583 128.2319 36.0542)" class="st3 st4">6</text>
<text transform="matrix(1 0 0 1 46.7769 31.6433)" class="st3 st4">j</text>
<text transform="matrix(0.583 0 0 0.583 52.105 36.9715)" class="st3 st4">1</text>
<text transform="matrix(1 0 0 1 17.4268 64.1331)" class="st3 st4">j</text>
<text transform="matrix(0.583 0 0 0.583 22.7549 69.4613)" class="st3 st4">2</text>
<text transform="matrix(1 0 0 1 43.5668 111.8981)" class="st3 st4">j</text>
<text transform="matrix(0.583 0 0 0.583 48.895 117.2263)" class="st3 st4">3</text>
<text transform="matrix(1 0 0 1 127.4895 116.0255)" class="st3 st4">j</text>
<text transform="matrix(0.583 0 0 0.583 132.8176 121.3536)" class="st3 st4">4</text>
<text transform="matrix(1 0 0 1 150.4206 64.1333)" class="st3 st4">j</text>
<text transform="matrix(0.583 0 0 0.583 155.7488 69.4615)" class="st3 st4">5</text>
</svg>
