<?xml version="1.0" encoding="utf-8"?>
<!-- Generator: Adobe Illustrator 24.2.0, SVG Export Plug-In . SVG Version: 6.00 Build 0)  -->
<svg version="1.1" id="图层_1" xmlns="http://www.w3.org/2000/svg" xmlns:xlink="http://www.w3.org/1999/xlink" x="0px" y="0px"
	 viewBox="0 0 333.98 167.74" style="enable-background:new 0 0 333.98 167.74;" xml:space="preserve">
<style type="text/css">
	.st0{fill:#FFFFFF;stroke:#000000;stroke-miterlimit:10;}
	.st1{font-family:'TimesNewRomanPS-BoldMT';}
	.st2{font-size:13px;}
	.st3{font-family:'AdobeSongStd-Light-GBpc-EUC-H';}
	.st4{font-size:12px;}
</style>
<polyline class="st0" points="38.89,54.57 65.49,78.42 38.89,101.35 "/>
<polyline class="st0" points="131.98,54.57 104.01,77.96 65.49,78.42 "/>
<line class="st0" x1="131.98" y1="101.35" x2="104.01" y2="77.96"/>
<line class="st0" x1="168.42" y1="144.92" x2="168.42" y2="21.55"/>
<polyline class="st0" points="224.42,120.56 248.27,93.96 271.2,120.56 "/>
<polyline class="st0" points="224.42,27.46 247.81,55.44 248.27,93.96 "/>
<line class="st0" x1="271.2" y1="27.46" x2="247.81" y2="55.44"/>
<text transform="matrix(1 0 0 1 26.7176 47.2357)" class="st1 st2">P</text>
<text transform="matrix(0.583 0 0 0.583 34.6585 51.5648)" class="st1 st2">1</text>
<text transform="matrix(1 0 0 1 25.3419 112.8151)" class="st1 st2">P</text>
<text transform="matrix(0.583 0 0 0.583 33.2828 117.1442)" class="st1 st2">2</text>
<text transform="matrix(1 0 0 1 138.6155 112.8151)" class="st1 st2">P</text>
<text transform="matrix(0.583 0 0 0.583 146.5564 117.1442)" class="st1 st2">3</text>
<text transform="matrix(1 0 0 1 134.4883 48.6116)" class="st1 st2">P</text>
<text transform="matrix(0.583 0 0 0.583 142.4292 52.9407)" class="st1 st2">4</text>
<text transform="matrix(1 0 0 1 211.6013 30.14)" class="st1 st2">P</text>
<text transform="matrix(0.583 0 0 0.583 219.5422 34.4691)" class="st1 st2">1</text>
<text transform="matrix(1 0 0 1 211.6985 113.6814)" class="st1 st2">P</text>
<text transform="matrix(0.583 0 0 0.583 219.6394 118.0105)" class="st1 st2">2</text>
<text transform="matrix(1 0 0 1 275.9024 115.0574)" class="st1 st2">P</text>
<text transform="matrix(0.583 0 0 0.583 283.8438 119.3865)" class="st1 st2">3</text>
<text transform="matrix(1 0 0 1 278.6535 30.6752)" class="st1 st2">P</text>
<text transform="matrix(0.583 0 0 0.583 286.5949 35.0043)" class="st1 st2">4</text>
<text transform="matrix(1 0 0 1 259.5015 80.1272)" class="st1 st2">l</text>
<text transform="matrix(1 0 0 1 81.7495 71.5413)" class="st1 st2">k</text>
<text transform="matrix(1 0 0 1 45.0619 151.8288)" class="st3 st4">取遍所有可能值</text>
<text transform="matrix(1 0 0 1 211.6013 150.9026)" class="st3 st4">取遍所有可能值</text>
<text transform="matrix(1 0 0 1 205.7449 151.1591)" class="st1 st2">l</text>
<text transform="matrix(1 0 0 1 36.4116 151.1592)" class="st1 st2">k</text>
</svg>
