<?xml version="1.0" encoding="utf-8"?>
<!-- Generator: Adobe Illustrator 24.2.0, SVG Export Plug-In . SVG Version: 6.00 Build 0)  -->
<svg version="1.1" id="图层_1" xmlns="http://www.w3.org/2000/svg" xmlns:xlink="http://www.w3.org/1999/xlink" x="0px" y="0px"
	 viewBox="0 0 99.02 140.63" style="enable-background:new 0 0 99.02 140.63;" xml:space="preserve">
<style type="text/css">
	.st0{fill:none;stroke:#000000;stroke-miterlimit:10;}
	.st1{font-family:'TimesNewRomanPS-BoldMT';}
	.st2{font-size:14px;}
</style>
<g>
	<g>
		<path d="M49.98,56.61c3.22,0,3.22-5,0-5C46.77,51.61,46.76,56.61,49.98,56.61L49.98,56.61z"/>
	</g>
</g>
<path class="st0" d="M44.39,99.2C31.53,84.89,29.72,68.05,36.8,60.02c3.96-4.49,11.92-7.59,19-5.06
	c9.07,3.24,11.25,13.78,11.66,16.19c1.8,10.69-4.81,19.34-8.36,23.98c-4.95,6.47-10.41,9.91-16.77,13.92
	c-7.48,4.72-14.27,7.57-19.02,9.27"/>
<path class="st0" d="M75.13,118.07c-7.58-3.21-14.91-7.06-21.69-11.73"/>
<line class="st0" x1="49.98" y1="54.11" x2="49.45" y2="7.34"/>
<text transform="matrix(1 0 0 1 55.4114 13.3058)" class="st1 st2">a</text>
<text transform="matrix(1 0 0 1 5.4241 118.3248)" class="st1 st2">b</text>
<text transform="matrix(1 0 0 1 82.9276 117.8665)" class="st1 st2">c</text>
</svg>
