<?xml version="1.0" encoding="utf-8"?>
<!-- Generator: Adobe Illustrator 24.2.0, SVG Export Plug-In . SVG Version: 6.00 Build 0)  -->
<svg version="1.1" id="图层_1" xmlns="http://www.w3.org/2000/svg" xmlns:xlink="http://www.w3.org/1999/xlink" x="0px" y="0px"
	 viewBox="0 0 334 167.7" style="enable-background:new 0 0 334 167.7;" xml:space="preserve">
<style type="text/css">
	.st0{fill:none;stroke:#000000;stroke-miterlimit:10;}
	.st1{font-family:'TimesNewRomanPS-BoldMT';}
	.st2{font-size:13px;}
	.st3{font-family:'NSimSun';}
	.st4{font-size:12px;}
</style>
<polyline class="st0" points="38.9,54.6 65.5,78.4 38.9,101.3 "/>
<polyline class="st0" points="132,54.6 104,78 65.5,78.4 "/>
<line class="st0" x1="132" y1="101.3" x2="104" y2="78"/>
<line class="st0" x1="168.4" y1="144.9" x2="168.4" y2="21.6"/>
<polyline class="st0" points="224.4,120.6 248.3,94 271.2,120.6 "/>
<polyline class="st0" points="224.4,27.5 247.8,55.4 248.3,94 "/>
<line class="st0" x1="271.2" y1="27.5" x2="247.8" y2="55.4"/>
<text transform="matrix(1 0 0 1 26.7176 47.2357)" class="st1 st2">b</text>
<text transform="matrix(1 0 0 1 25.3419 112.8151)" class="st1 st2">a</text>
<text transform="matrix(1 0 0 1 138.6155 112.8151)" class="st1 st2">d</text>
<text transform="matrix(1 0 0 1 134.4883 48.6116)" class="st1 st2">c</text>
<text transform="matrix(1 0 0 1 211.6013 30.14)" class="st1 st2">b</text>
<text transform="matrix(1 0 0 1 211.6985 113.6814)" class="st1 st2">a</text>
<text transform="matrix(1 0 0 1 275.9024 115.0574)" class="st1 st2">d</text>
<text transform="matrix(1 0 0 1 278.6535 30.6752)" class="st1 st2">c</text>
<text transform="matrix(1 0 0 1 259.5015 80.1272)" class="st1 st2">l</text>
<text transform="matrix(1 0 0 1 81.7495 71.5413)" class="st1 st2">k</text>
<text transform="matrix(1 0 0 1 45.0619 151.8288)" class="st3 st4">取遍所有可能值</text>
<text transform="matrix(1 0 0 1 211.6013 150.9026)" class="st3 st4">取遍所有可能值</text>
<text transform="matrix(1 0 0 1 205.7449 151.1591)" class="st1 st2">l</text>
<text transform="matrix(1 0 0 1 36.4116 151.1592)" class="st1 st2">k</text>
</svg>
