<?xml version="1.0" encoding="utf-8"?>
<!-- Generator: Adobe Illustrator 24.2.0, SVG Export Plug-In . SVG Version: 6.00 Build 0)  -->
<svg version="1.1" id="图层_1" xmlns="http://www.w3.org/2000/svg" xmlns:xlink="http://www.w3.org/1999/xlink" x="0px" y="0px"
	 viewBox="0 0 118.75 116.32" style="enable-background:new 0 0 118.75 116.32;" xml:space="preserve">
<style type="text/css">
	.st0{fill:none;stroke:#000000;stroke-miterlimit:10;}
	.st1{fill:#FFFFFF;stroke:#000000;stroke-miterlimit:10;}
	.st2{font-family:'TimesNewRomanPS-BoldMT';}
	.st3{font-size:13px;}
</style>
<polyline class="st0" points="99.44,72.55 67.34,72.93 66.42,15.14 "/>
<path class="st1" d="M46.92,73.04c4.81-0.04,9.61-0.07,14.42-0.11h6"/>
<path class="st0" d="M17.81,73.3c6.69-0.05,13.39-0.1,20.08-0.15"/>
<path class="st0" d="M65.96,43.12L65.2,43.1c-12.62-0.24-22.94,10.02-22.76,22.64l0.03,1.84l0.17,13.7
	c0.03,8.83,0.08,17.66,0.4,26.49"/>
<text transform="matrix(1 0 0 1 18.2674 65.131)" class="st2 st3">i</text>
<text transform="matrix(0.583 0 0 0.583 21.8792 69.4601)" class="st2 st3">r</text>
<text transform="matrix(1 0 0 1 93.0188 63.7551)" class="st2 st3">i</text>
<text transform="matrix(0.583 0 0 0.583 96.6306 68.0842)" class="st2 st3">r+1</text>
<text transform="matrix(1 0 0 1 48.9933 93.564)" class="st2 st3">2</text>
<text transform="matrix(1 0 0 1 51.2865 31.6532)" class="st2 st3">P</text>
<text transform="matrix(0.583 0 0 0.583 59.2274 35.9823)" class="st2 st3">r</text>
<text transform="matrix(1 0 0 1 51.745 64.2137)" class="st2 st3">P</text>
<text transform="matrix(0.583 0 0 0.583 59.686 68.5428)" class="st2 st3">r</text>
</svg>
