<?xml version="1.0" encoding="utf-8"?>
<!-- Generator: Adobe Illustrator 24.2.0, SVG Export Plug-In . SVG Version: 6.00 Build 0)  -->
<svg version="1.1" id="图层_1" xmlns="http://www.w3.org/2000/svg" xmlns:xlink="http://www.w3.org/1999/xlink" x="0px" y="0px"
	 viewBox="0 0 91.72 130.88" style="enable-background:new 0 0 91.72 130.88;" xml:space="preserve">
<style type="text/css">
	.st0{fill:#FFFFFF;stroke:#000000;stroke-miterlimit:10;}
	.st1{font-family:'TimesNewRomanPS-BoldMT';}
	.st2{font-size:13px;}
</style>
<polyline class="st0" points="20.28,110.45 44.13,83.85 67.06,110.45 "/>
<polyline class="st0" points="20.28,17.35 43.67,45.33 44.13,83.85 "/>
<line class="st0" x1="67.06" y1="17.35" x2="43.67" y2="45.33"/>
<text transform="matrix(1 0 0 1 7.4652 20.0279)" class="st1 st2">P</text>
<text transform="matrix(0.583 0 0 0.583 15.4061 24.357)" class="st1 st2">1</text>
<text transform="matrix(1 0 0 1 7.5623 103.5694)" class="st1 st2">P</text>
<text transform="matrix(0.583 0 0 0.583 15.5033 107.8985)" class="st1 st2">2</text>
<text transform="matrix(1 0 0 1 71.7663 104.9454)" class="st1 st2">P</text>
<text transform="matrix(0.583 0 0 0.583 79.7077 109.2745)" class="st1 st2">3</text>
<text transform="matrix(1 0 0 1 74.5174 20.5631)" class="st1 st2">P</text>
<text transform="matrix(0.583 0 0 0.583 82.4588 24.8922)" class="st1 st2">4</text>
<text transform="matrix(1 0 0 1 55.3654 70.0151)" class="st1 st2">l</text>
</svg>
