<?xml version="1.0" encoding="utf-8"?>
<!-- Generator: Adobe Illustrator 24.2.0, SVG Export Plug-In . SVG Version: 6.00 Build 0)  -->
<svg version="1.1" id="图层_1" xmlns="http://www.w3.org/2000/svg" xmlns:xlink="http://www.w3.org/1999/xlink" x="0px" y="0px"
	 viewBox="0 0 139.07 85.76" style="enable-background:new 0 0 139.07 85.76;" xml:space="preserve">
<style type="text/css">
	.st0{fill:#FFFFFF;stroke:#000000;stroke-miterlimit:10;}
	.st1{font-family:'TimesNewRomanPS-BoldMT';}
	.st2{font-size:13px;}
</style>
<polyline class="st0" points="21.41,20.98 48,44.83 21.41,67.76 "/>
<polyline class="st0" points="114.5,20.98 86.53,44.37 48,44.83 "/>
<line class="st0" x1="114.5" y1="67.76" x2="86.53" y2="44.37"/>
<text transform="matrix(1 0 0 1 9.2336 13.6459)" class="st1 st2">P</text>
<text transform="matrix(0.583 0 0 0.583 17.1745 17.975)" class="st1 st2">1</text>
<text transform="matrix(1 0 0 1 7.8579 79.2253)" class="st1 st2">P</text>
<text transform="matrix(0.583 0 0 0.583 15.7988 83.5545)" class="st1 st2">2</text>
<text transform="matrix(1 0 0 1 121.1315 79.2253)" class="st1 st2">P</text>
<text transform="matrix(0.583 0 0 0.583 129.0724 83.5545)" class="st1 st2">3</text>
<text transform="matrix(1 0 0 1 117.0043 15.0219)" class="st1 st2">P</text>
<text transform="matrix(0.583 0 0 0.583 124.9452 19.351)" class="st1 st2">4</text>
<text transform="matrix(1 0 0 1 64.2655 37.9515)" class="st1 st2">k</text>
</svg>
