<?xml version="1.0" encoding="utf-8"?>
<!-- Generator: Adobe Illustrator 24.2.0, SVG Export Plug-In . SVG Version: 6.00 Build 0)  -->
<svg version="1.1" id="图层_1" xmlns="http://www.w3.org/2000/svg" xmlns:xlink="http://www.w3.org/1999/xlink" x="0px" y="0px"
	 viewBox="0 0 273 144" style="enable-background:new 0 0 273 144;" xml:space="preserve">
<style type="text/css">
	.st0{fill:none;stroke:#000000;stroke-linecap:round;stroke-miterlimit:10;}
	.st1{stroke:#000000;stroke-linecap:round;stroke-miterlimit:10;}
	.st2{font-family:'TimesNewRomanPS-BoldMT';}
	.st3{font-size:15px;}
</style>
<path class="st0" d="M23.71,43.85v43.62c0,10.52,8.53,19.06,19.06,19.06h25.41V44.28"/>
<path class="st0" d="M68.18,106.52c0,0,37.69,0,40.65,0V43.85"/>
<polyline class="st0" points="108.83,106.52 150.75,106.52 150.75,43.85 "/>
<line class="st0" x1="172.35" y1="106.52" x2="150.75" y2="106.52"/>
<polyline class="st0" points="181.24,92.13 177.43,101.02 181.24,106.52 177.43,110.76 "/>
<polyline class="st0" points="187.59,92.13 183.36,101.44 187.59,106.52 183.36,110.76 "/>
<polyline class="st0" points="195.22,106.52 206.65,106.52 206.65,43.85 "/>
<path class="st0" d="M208.77,106.52"/>
<path class="st0" d="M206.65,106.52"/>
<path class="st0" d="M206.65,106.52h24.56c9.35,0,16.94-7.58,16.94-16.94V43.85"/>
<ellipse transform="matrix(0.9982 -0.0601 0.0601 0.9982 -6.2181 6.7383)" class="st1" cx="108.94" cy="106.77" rx="2.83" ry="2.6"/>
<ellipse transform="matrix(0.9982 -0.0601 0.0601 0.9982 -6.1666 9.2381)" class="st1" cx="150.53" cy="107.16" rx="2.83" ry="2.6"/>
<ellipse transform="matrix(0.9982 -0.0601 0.0601 0.9982 -6.0654 12.6028)" class="st1" cx="206.53" cy="107.16" rx="2.83" ry="2.6"/>
<ellipse transform="matrix(0.9982 -0.0601 0.0601 0.9982 -6.3148 4.3112)" class="st1" cx="68.53" cy="107.16" rx="2.83" ry="2.6"/>
<text transform="matrix(1 0 0 1 22.4437 33.6886)" class="st2 st3">j</text>
<text transform="matrix(0.583 0 0 0.583 27.4388 38.6837)" class="st2 st3">1</text>
<text transform="matrix(1 0 0 1 66.8371 34.1119)" class="st2 st3">j</text>
<text transform="matrix(0.583 0 0 0.583 71.8322 39.107)" class="st2 st3">2</text>
<text transform="matrix(1 0 0 1 108.9371 34.5712)" class="st2 st3">j</text>
<text transform="matrix(0.583 0 0 0.583 113.9323 39.5664)" class="st2 st3">3</text>
<text transform="matrix(1 0 0 1 148.7069 34.6783)" class="st2 st3">j</text>
<text transform="matrix(0.583 0 0 0.583 153.702 39.6734)" class="st2 st3">4</text>
<text transform="matrix(1 0 0 1 201.6039 34.9488)" class="st2 st3">j</text>
<text transform="matrix(0.583 0 0 0.583 206.599 39.9439)" class="st2 st3">n-1</text>
<text transform="matrix(1 0 0 1 245.6078 34.3365)" class="st2 st3">j</text>
<text transform="matrix(0.583 0 0 0.583 250.6029 39.3316)" class="st2 st3">n</text>
<text transform="matrix(1 0 0 1 84.2689 119.6511)" class="st2 st3">k</text>
<text transform="matrix(0.583 0 0 0.583 92.6112 124.6462)" class="st2 st3">1</text>
<text transform="matrix(1 0 0 1 126.6737 120.3809)" class="st2 st3">k</text>
<text transform="matrix(0.583 0 0 0.583 135.016 125.376)" class="st2 st3">2</text>
<text transform="matrix(1 0 0 1 161.8017 120.0749)" class="st2 st3">k</text>
<text transform="matrix(0.583 0 0 0.583 170.1435 125.07)" class="st2 st3">3</text>
</svg>
